<svg xmlns="http://www.w3.org/2000/svg" width="16.867" height="16.867" viewBox="0 0 16.867 16.867">
  <path id="plus" d="M15.813,10.542H10.542v5.271a1.04,1.04,0,0,1-1.054,1.054H7.379a1.006,1.006,0,0,1-.75-.313,1.025,1.025,0,0,1-.3-.741V10.542H1.054a1.006,1.006,0,0,1-.75-.313A1.025,1.025,0,0,1,0,9.488V7.379a1.02,1.02,0,0,1,.3-.75,1.016,1.016,0,0,1,.75-.3H6.325V1.054A1.02,1.02,0,0,1,6.63.3a1.016,1.016,0,0,1,.75-.3H9.488a1.02,1.02,0,0,1,.75.3,1.016,1.016,0,0,1,.3.75V6.325h5.271a1.04,1.04,0,0,1,1.054,1.054V9.488a1.027,1.027,0,0,1-.3.741A1,1,0,0,1,15.813,10.542Z" fill="#ffcb05"/>
</svg>
